<svg width="3" height="13" viewBox="0 0 3 13" fill="none" xmlns="http://www.w3.org/2000/svg">
<path d="M1.98438 8.64844H0.351562L0.171875 0.625H2.17188L1.98438 8.64844ZM0.117188 11.1016C0.117188 10.8047 0.213542 10.5599 0.40625 10.3672C0.598958 10.1693 0.861979 10.0703 1.19531 10.0703C1.52865 10.0703 1.79167 10.1693 1.98438 10.3672C2.17708 10.5599 2.27344 10.8047 2.27344 11.1016C2.27344 11.388 2.17969 11.6276 1.99219 11.8203C1.80469 12.013 1.53906 12.1094 1.19531 12.1094C0.851562 12.1094 0.585938 12.013 0.398438 11.8203C0.210938 11.6276 0.117188 11.388 0.117188 11.1016Z" fill="#FF0000"/>
</svg>
